<?xml version="1.0" standalone="no"?>
<!DOCTYPE svg PUBLIC "-//W3C//DTD SVG 20010904//EN"
 "http://www.w3.org/TR/2001/REC-SVG-20010904/DTD/svg10.dtd">
<svg version="1.0" xmlns="http://www.w3.org/2000/svg"
 width="2496.000000pt" height="2496.000000pt" viewBox="0 0 2496.000000 2496.000000"
 preserveAspectRatio="xMidYMid meet">
<metadata>
Created by potrace 1.14, written by Peter Selinger 2001-2017
</metadata>
<g transform="translate(0.000000,2496.000000) scale(0.100000,-0.100000)"
fill="#000000" stroke="none">
<path d="M10647 16314 c-1 -1 -63 -4 -137 -8 -74 -3 -146 -8 -160 -10 -14 -2
-47 -7 -73 -11 -27 -4 -59 -8 -70 -11 -43 -8 -82 -16 -107 -19 -14 -3 -35 -7
-47 -10 -13 -3 -31 -7 -42 -9 -85 -19 -302 -90 -343 -112 -15 -8 -30 -15 -33
-14 -3 0 -7 -1 -10 -1 -3 -1 -8 -2 -12 -3 -37 -9 -304 -151 -387 -206 -13 -8
-43 -28 -67 -44 -153 -100 -372 -296 -504 -450 -27 -32 -54 -64 -60 -70 -23
-25 -123 -163 -140 -193 -11 -18 -23 -33 -28 -33 -4 0 -6 -4 -2 -9 3 -5 1 -12
-4 -15 -25 -16 -156 -263 -211 -401 -18 -44 -38 -93 -45 -110 -7 -16 -19 -50
-26 -75 -7 -25 -13 -47 -14 -50 -1 -3 -10 -32 -20 -65 -11 -33 -20 -64 -21
-70 -1 -5 -3 -12 -4 -15 -1 -3 -4 -16 -6 -30 -3 -14 -10 -43 -16 -65 -6 -22
-12 -51 -13 -65 -1 -14 -5 -38 -8 -55 -4 -16 -9 -50 -12 -75 -4 -25 -8 -56
-10 -71 -3 -14 -7 -68 -11 -120 -3 -51 -7 -110 -8 -129 -1 -19 2 -41 7 -47 5
-7 6 -13 1 -13 -5 0 -9 -25 -9 -55 0 -30 2 -55 5 -55 3 0 5 -26 6 -58 1 -85
20 -237 39 -322 3 -14 8 -36 11 -50 2 -14 7 -36 10 -50 3 -14 7 -32 9 -40 2
-8 13 -49 24 -90 11 -41 21 -78 21 -81 0 -5 -1763 -3 -3525 4 l-570 2 -2 1519
-2 1518 -22 45 c-13 28 -37 54 -63 71 l-41 27 -450 1 c-429 1 -452 0 -493 -19
-56 -26 -91 -73 -100 -134 -9 -62 -7 -6646 2 -6695 8 -46 71 -112 117 -123 48
-11 876 -13 919 -2 48 12 94 49 114 91 15 33 17 152 17 1535 l0 1500 1522 -4
c837 -3 1528 -5 1535 -5 46 0 224 0 235 0 6 0 37 0 67 0 30 0 63 0 73 0 9 0
37 0 62 0 25 0 52 0 60 0 8 0 27 0 43 1 15 0 36 0 47 -1 11 0 31 1 45 3 14 2
31 -1 38 -6 7 -6 12 -6 12 0 0 5 19 8 43 6 55 -4 56 -4 95 0 17 2 32 -1 32 -5
0 -5 8 -5 18 0 9 5 28 6 42 2 14 -4 34 -4 45 0 11 4 29 4 40 0 11 -4 32 -4 48
1 15 4 27 4 27 -1 0 -5 13 -5 30 0 17 5 30 5 30 0 0 -5 13 -5 30 0 18 5 30 5
30 0 0 -6 10 -6 25 0 15 6 27 6 30 0 3 -6 15 -6 30 0 15 6 25 6 25 0 0 -5 12
-5 30 0 17 5 30 5 30 0 0 -5 13 -5 30 0 17 5 30 5 30 0 0 -5 13 -5 30 0 17 5
30 6 30 2 0 -4 15 -6 32 -5 18 1 33 2 33 3 0 1 17 3 38 5 54 4 138 48 181 95
71 77 99 178 82 295 -5 36 -36 128 -45 135 -22 18 -139 397 -157 510 -3 19 -7
47 -9 63 -3 15 -7 39 -10 55 -5 27 -17 154 -19 202 -1 14 -5 31 -9 38 -5 6 -5
12 0 12 4 0 8 48 9 108 0 115 9 230 23 302 5 25 7 48 5 52 -3 5 0 8 6 8 6 0 9
4 6 8 -3 4 0 28 6 53 5 24 11 51 13 59 2 8 4 15 5 15 1 0 3 7 5 15 11 49 61
196 67 198 4 2 8 10 8 18 0 7 12 39 27 71 15 32 27 60 28 63 0 3 3 10 6 15 4
6 21 37 39 70 18 33 45 78 59 100 14 22 28 45 31 50 13 27 105 145 112 145 4
0 8 4 8 9 0 18 177 203 243 254 15 12 40 32 55 45 41 35 217 152 230 152 6 0
12 4 14 8 3 9 208 113 208 106 0 -2 18 5 40 16 22 11 40 18 40 14 0 -4 6 -2
13 4 24 19 248 78 367 96 186 27 405 27 595 -1 22 -3 49 -7 60 -8 190 -28 522
-152 688 -258 31 -20 62 -37 67 -37 6 0 10 -4 10 -10 0 -5 5 -10 11 -10 6 0
24 -10 39 -22 15 -13 38 -30 50 -38 44 -28 225 -188 280 -247 69 -74 115 -109
170 -128 94 -33 225 -21 298 27 20 14 91 79 157 144 66 66 136 131 155 146 19
14 46 36 60 47 14 11 30 24 35 29 23 19 183 121 225 143 25 13 48 28 51 32 3
5 9 9 12 8 4 0 33 11 64 25 105 46 118 52 138 59 11 3 21 6 23 5 1 0 16 7 32
15 17 9 30 13 30 10 0 -3 14 1 30 10 17 9 30 13 30 9 0 -4 7 -1 15 6 8 7 15
10 15 7 0 -3 21 0 48 8 53 16 90 24 142 31 19 3 42 7 49 10 32 11 174 19 316
18 172 0 251 -8 400 -41 39 -9 82 -18 98 -20 15 -3 27 -10 27 -15 0 -5 4 -7 9
-4 24 15 414 -153 480 -207 7 -6 21 -16 31 -22 65 -38 201 -145 285 -225 178
-170 310 -351 425 -585 63 -127 140 -334 153 -410 3 -16 12 -61 20 -100 8 -38
18 -88 21 -110 13 -99 19 -123 40 -171 66 -145 252 -229 422 -190 85 19 180
104 205 184 19 59 17 175 -6 292 -2 14 -7 41 -11 60 -3 19 -7 40 -8 45 -1 6
-8 37 -15 70 -7 33 -16 71 -21 85 -5 14 -11 36 -14 50 -2 14 -9 39 -16 55 -7
17 -14 40 -16 53 -5 25 -80 221 -115 297 -12 28 -21 52 -20 54 2 2 -1 7 -6 10
-4 3 -23 35 -41 71 -46 88 -145 254 -154 258 -4 2 -8 8 -8 13 0 5 -6 17 -14
26 -8 10 -36 47 -63 83 -26 36 -50 67 -53 70 -3 3 -29 34 -59 70 -69 83 -260
269 -331 323 -30 23 -64 50 -75 60 -11 10 -32 26 -47 35 -16 9 -28 20 -28 24
0 4 -7 8 -15 8 -8 0 -15 5 -15 10 0 6 -7 10 -15 10 -8 0 -15 5 -15 10 0 6 -6
10 -13 10 -7 0 -23 9 -35 20 -12 11 -28 20 -37 20 -8 0 -15 3 -15 8 0 4 -15
15 -33 26 -60 35 -286 146 -296 146 -11 0 -18 3 -72 31 -12 6 -29 12 -38 14
-9 2 -43 14 -76 26 -61 22 -75 26 -180 52 -33 9 -73 19 -90 23 -30 8 -38 9
-85 17 -14 3 -38 7 -55 10 -16 3 -48 8 -70 11 -22 3 -62 9 -90 13 -68 10 -464
10 -548 0 -37 -5 -91 -12 -120 -17 -29 -4 -60 -6 -69 -5 -10 2 -20 0 -23 -4
-2 -5 -26 -12 -52 -16 -27 -5 -52 -10 -58 -11 -5 -2 -19 -5 -30 -7 -200 -46
-445 -138 -630 -237 -44 -24 -90 -48 -102 -54 -13 -6 -23 -14 -23 -18 0 -5 -5
-8 -12 -8 -17 0 -190 -119 -296 -204 -104 -82 -93 -81 -158 -18 -13 12 -26 22
-30 22 -3 0 -23 14 -43 30 -52 44 -50 43 -147 106 -102 68 -100 66 -259 148
-98 51 -183 91 -215 101 -9 3 -45 17 -65 25 -37 16 -180 62 -204 67 -14 2 -28
6 -31 8 -8 5 -184 45 -220 50 -14 2 -25 5 -25 6 0 1 -16 3 -35 4 -19 2 -35 4
-35 5 0 1 -13 4 -30 6 -16 2 -46 5 -65 8 -50 7 -319 23 -323 20z"/>
<path d="M21040 15994 c-35 -16 -55 -34 -74 -67 l-27 -45 0 -1524 0 -1523
-1142 -3 c-628 -2 -1684 -4 -2347 -6 -1137 -2 -1208 -4 -1260 -21 -69 -23
-116 -52 -158 -99 -18 -20 -31 -36 -28 -36 9 0 -144 -291 -216 -409 -21 -34
-38 -65 -38 -67 0 -3 -4 -10 -10 -17 -5 -7 -42 -61 -82 -122 -39 -60 -75 -112
-78 -115 -3 -3 -22 -27 -40 -55 -19 -27 -39 -55 -45 -62 -16 -20 -29 -35 -60
-78 -37 -49 -42 -55 -151 -185 -158 -189 -334 -373 -591 -617 -78 -73 -116
-108 -273 -242 -41 -36 -79 -70 -85 -75 -5 -6 -26 -23 -45 -37 -19 -15 -45
-35 -56 -45 -12 -11 -36 -30 -54 -44 -18 -14 -38 -30 -44 -35 -44 -42 -499
-382 -621 -465 -27 -18 -52 -36 -55 -39 -3 -3 -45 -33 -95 -66 -49 -33 -92
-62 -95 -65 -14 -14 -102 -70 -110 -70 -6 0 -10 -4 -10 -10 0 -5 -6 -10 -13
-10 -7 0 -26 -11 -43 -24 -24 -21 -122 -84 -404 -261 -19 -12 -53 -33 -75 -47
-89 -56 -148 -80 -181 -75 -37 6 -216 93 -243 118 -10 9 -27 20 -39 23 -12 4
-22 12 -22 17 0 5 -4 9 -9 9 -8 0 -193 118 -217 138 -18 16 -122 82 -161 103
-13 7 -23 16 -23 21 0 4 -4 8 -10 8 -9 0 -309 196 -320 209 -3 3 -48 35 -100
70 -52 35 -96 68 -98 73 -2 4 -9 8 -16 8 -7 0 -21 8 -32 18 -10 9 -71 55 -134
102 -63 46 -122 90 -130 97 -8 7 -51 40 -95 75 -44 35 -81 66 -83 70 -2 5 -10
8 -18 8 -8 0 -14 3 -14 8 0 4 -28 30 -62 57 -34 28 -70 57 -78 65 -9 8 -45 39
-81 69 -35 30 -71 62 -80 70 -9 9 -47 43 -85 76 -141 124 -527 515 -641 651
-24 28 -53 62 -65 76 -13 14 -43 49 -68 77 -84 96 -209 132 -324 94 -54 -17
-56 -18 -125 -80 -43 -38 -99 -128 -105 -167 -1 -8 -4 -18 -7 -20 -3 -3 -4
-37 -3 -76 3 -81 30 -150 88 -220 151 -183 267 -309 472 -514 124 -125 324
-316 330 -316 2 0 14 -10 27 -22 41 -40 205 -182 242 -211 26 -20 133 -109
150 -124 8 -7 18 -13 24 -13 6 0 11 -4 11 -8 0 -4 24 -26 53 -47 28 -22 57
-44 63 -50 6 -5 23 -19 38 -30 15 -11 51 -38 80 -60 106 -80 120 -91 185 -137
36 -26 79 -58 95 -70 16 -13 59 -44 95 -69 36 -25 95 -66 131 -91 136 -94 289
-196 395 -263 61 -38 111 -73 113 -77 2 -5 7 -8 12 -8 5 0 56 -29 113 -65 58
-36 110 -65 116 -65 6 0 11 -4 11 -8 0 -5 17 -17 38 -28 20 -10 44 -24 52 -30
8 -6 42 -26 75 -44 33 -18 67 -38 75 -45 34 -27 210 -105 279 -124 56 -16 95
-19 165 -16 100 4 146 11 161 26 5 5 16 9 25 9 31 0 260 126 358 197 27 19 43
29 106 62 25 14 46 28 46 33 0 4 4 8 10 8 5 0 76 43 157 96 181 118 285 187
298 197 6 4 62 43 125 86 63 44 120 84 127 90 7 6 15 11 17 11 3 0 25 15 49
33 24 17 54 40 68 50 76 54 155 112 159 117 3 3 27 22 54 41 28 18 58 41 67
49 10 8 24 20 31 25 21 16 141 109 158 122 202 163 322 263 425 355 16 14 41
36 55 48 194 165 500 466 735 724 6 6 39 45 74 86 35 41 67 77 70 80 3 3 24
28 46 55 21 28 42 52 45 55 17 16 229 299 241 323 7 12 18 27 25 35 11 11 133
198 167 257 7 11 14 22 17 25 3 3 14 21 24 40 10 19 35 64 54 100 43 80 35 72
72 76 18 2 36 6 41 9 5 4 9 3 9 -2 0 -9 84 -8 99 2 5 3 12 1 16 -4 3 -7 15 -7
30 -1 14 5 27 5 30 0 3 -5 18 -5 35 0 18 5 32 5 35 -1 4 -5 13 -5 23 0 11 6
24 6 35 0 9 -6 17 -6 17 -2 0 10 41 10 57 0 7 -4 14 -4 17 1 5 9 47 9 63 -1 5
-4 13 -4 17 0 9 10 56 10 56 0 0 -4 5 -5 11 -2 17 11 59 13 65 3 3 -4 10 -5
17 -1 15 9 98 10 104 0 2 -4 9 -4 16 0 16 9 87 10 87 0 0 -4 5 -5 10 -2 16 10
100 12 106 3 3 -5 11 -5 17 -1 16 10 177 10 177 0 0 -5 5 -5 12 -1 7 4 729 9
1605 11 l1592 3 0 -1500 c0 -1484 0 -1500 20 -1539 24 -45 61 -75 111 -88 19
-5 231 -9 471 -8 472 0 467 0 517 55 40 44 42 49 50 92 4 24 7 1538 6 3364 -1
2762 -3 3328 -14 3355 -16 40 -60 85 -98 101 -19 8 -160 12 -470 13 -439 1
-444 1 -492 -21z"/>
<path d="M1558 15407 c-48 -11 -105 -68 -117 -115 -6 -23 -9 -1083 -9 -2776 0
-2953 -3 -2786 51 -2840 50 -50 72 -52 550 -51 l445 0 38 31 c76 61 85 87 84
234 0 36 0 72 -1 80 0 8 0 80 0 160 0 80 0 152 0 160 0 8 0 80 0 160 0 80 0
152 0 160 0 8 0 80 0 160 0 80 0 152 0 160 0 8 0 80 0 160 0 80 0 152 0 160 0
8 0 80 0 160 0 80 0 152 0 160 0 12 0 229 0 325 0 11 1 91 2 177 0 87 -2 162
-6 168 -3 5 -2 10 2 10 5 0 8 15 5 33 -3 31 -3 47 1 115 1 19 -1 36 -4 38 -4
2 -3 19 1 38 4 19 6 37 3 39 -5 5 -5 60 0 120 1 21 -1 41 -5 44 -5 2 -6 8 -3
13 3 5 5 31 5 57 -1 51 0 78 3 131 1 19 0 35 -4 38 -4 2 -4 18 0 36 4 18 4 56
1 85 -3 29 -3 53 0 53 7 0 3 87 -5 108 -2 6 -1 12 3 12 5 0 7 15 4 33 -3 31
-3 47 1 115 1 19 -1 36 -4 38 -4 2 -3 19 1 38 4 19 6 37 3 39 -5 5 -5 60 0
120 1 21 -1 41 -5 44 -5 2 -6 8 -3 13 3 5 5 31 5 57 -1 51 0 78 3 131 1 19 0
35 -4 38 -4 2 -4 18 0 36 4 18 4 56 1 85 -3 29 -3 53 0 53 7 0 3 87 -5 108 -2
6 -1 12 3 12 5 0 7 15 4 33 -3 31 -3 47 1 115 1 19 -1 36 -4 38 -4 2 -3 19 1
38 4 19 6 37 3 39 -5 5 -5 60 0 120 1 21 -1 41 -5 44 -5 2 -6 8 -3 13 3 5 5
31 5 57 -1 51 0 78 3 131 1 19 0 35 -4 38 -4 2 -4 18 0 36 4 18 4 56 1 85 -3
29 -3 53 0 53 7 0 3 87 -5 108 -2 6 -1 12 3 12 8 0 6 84 -3 107 -2 6 0 13 5
15 5 2 -1 26 -14 55 -17 36 -37 60 -67 80 l-42 28 -441 0 c-243 1 -458 -3
-478 -8z"/>
<path d="M22497 15409 c-49 -13 -88 -44 -110 -89 l-22 -45 0 -2760 c1 -2565 2
-2762 18 -2790 26 -47 49 -69 87 -85 29 -12 114 -15 485 -15 l450 0 42 25 c30
16 50 38 65 69 l22 46 1 2749 c0 2068 -3 2759 -12 2784 -13 40 -47 78 -88 100
-26 14 -85 16 -472 17 -242 0 -452 -2 -466 -6z"/>
<path d="M162 14749 c-69 -9 -141 -58 -142 -96 0 -7 -4 -13 -10 -13 -11 0 -15
-4153 -4 -4207 7 -34 45 -80 89 -108 28 -18 56 -19 490 -19 404 0 464 2 490
16 44 24 82 68 92 108 11 44 10 4166 -1 4200 -15 43 -46 80 -89 101 -39 20
-56 21 -451 23 -226 0 -435 -2 -464 -5z"/>
<path d="M23984 14750 c-80 -5 -95 -8 -127 -33 -76 -58 -70 138 -71 -2192 l0
-2090 24 -43 c16 -29 38 -49 69 -65 46 -22 48 -22 496 -21 297 1 459 5 476 12
35 14 73 50 93 89 15 30 16 197 14 2131 l-3 2098 -25 36 c-24 36 -72 72 -100
74 -8 1 -17 3 -20 3 -15 5 -749 5 -826 1z"/>
</g>
</svg>
